<?xml version="1.0" encoding="iso-8859-1"?>
<!-- Generator: Adobe Illustrator 19.0.0, SVG Export Plug-In . SVG Version: 6.00 Build 0)  -->
<svg xmlns="http://www.w3.org/2000/svg" xmlns:xlink="http://www.w3.org/1999/xlink" version="1.1" id="Layer_1" x="0px" y="0px" viewBox="0 0 512 512" style="enable-background:new 0 0 512 512;" xml:space="preserve" width="512" height="512">
<g>
	<path style="fill:#FF7149;" d="M256,0l-75.5,151L256,302c83.395,0,151-67.605,151-151S339.395,0,256,0z"/>
	<path style="fill:#FF9441;" d="M105,151c0,83.395,67.605,151,151,151V0C172.605,0,105,67.605,105,151z"/>
	<path style="fill:#FFB739;" d="M256,45l-53,106l53,106c58.542,0,106-47.458,106-106S314.542,45,256,45z"/>
	<path style="fill:#FFEAC3;" d="M150,151c0,58.542,47.458,106,106,106V45C197.458,45,150,92.458,150,151z"/>
	<path style="fill:#233952;" d="M90,332c-49.626,0-90,40.374-90,90v90h121l60-90l-60-90H90z"/>
	<polygon style="fill:#BFDCFF;" points="191.788,332 121,332 121,512 193.293,512 256,407.611  "/>
	<path style="fill:#09213D;" d="M422,332c49.626,0,90,40.374,90,90v90H391l-60-90l60-90H422z"/>
	<polygon style="fill:#89C1FF;" points="320.212,332 256,407 318.707,512 391,512 391,332  "/>
	<polygon style="fill:#09213D;" points="320.212,332 256,332 236,437 301.461,407  "/>
	<polygon style="fill:#233952;" points="191.788,332 210.539,407 256,437 256,332  "/>
	<polygon points="301.461,407 256,407 236,459.5 256,512 318.707,512  "/>
	<polygon style="fill:#09213D;" points="210.539,407 193.293,512 256,512 256,407  "/>
	<polygon style="fill:#FF7149;" points="286,105 256,105 246,151 256,197 286,197  "/>
	<rect x="226" y="105" style="fill:#FF9441;" width="30" height="92"/>
</g>















</svg>
